<?xml version="1.0" encoding="utf-8"?>
<!-- Generator: Adobe Illustrator 22.0.1, SVG Export Plug-In . SVG Version: 6.00 Build 0)  -->
<svg version="1.1" xmlns="http://www.w3.org/2000/svg" xmlns:xlink="http://www.w3.org/1999/xlink" x="0px" y="0px"
	 viewBox="0 0 500 500" style="enable-background:new 0 0 500 500;" xml:space="preserve">
<style type="text/css">
	.st0{fill:#FFFFFF;}
	.st1{fill:#006A82;}
	.st2{fill:#2D3751;}
	.st3{fill:#98E5E5;}
</style>
     <style>

 
    #layer2 {
    animation: float 6s ease-in-out forwards;
    animation-iteration-count: infinite;
  }
  #screen {
    fill: #g300;
  }

  @keyframes float {
    0% {
      transform: translateY(0px);
    }
    50% {
      transform: translateY(5px);
    }
    100% {
      transform: translateY(0px);
    }
  }

  </style>
       <style>

 
    #layer3 {
    animation: float 3s ease-in-out forwards;
    animation-iteration-count: infinite;
  }
  #screen {
    fill: #g300;
  }

  @keyframes float {
    0% {
      transform: translateY(0px);
    }
    50% {
      transform: translateY(5px);
    }
    100% {
      transform: translateY(0px);
    }
  }

  </style>
<g id="BACKGROUND">
	<rect class="st0" width="500" height="500"/>
</g>
<g id="Shahan">
	<g id="SH">
		<path id="back" class="st1" d="M278.2,278.9h-56.3c-23.1,0-41.7-18.7-41.7-41.7v-56.3c0-23.1,18.7-41.7,41.7-41.7h56.3
			c23.1,0,41.7,18.7,41.7,41.7v56.3C319.9,260.2,301.2,278.9,278.2,278.9z"/>
		<path id="line" class="st2" d="M277.9,291.3h-55.7c-30,0-54.4-24.4-54.4-54.4v-55.7c0-30,24.4-54.4,54.4-54.4h55.7v3h-55.7
			c-28.4,0-51.4,23.1-51.4,51.4v55.7c0,28.4,23.1,51.4,51.4,51.4h55.7c28.4,0,51.4-23.1,51.4-51.4v-55.7h3v55.7
			C332.3,266.9,307.9,291.3,277.9,291.3z"/>
		<g id="H">
			<path class="st2" d="M297,195.6h-53.4c15,5.2,5,15,9.8,26.8H297V195.6z"/>
			<path class="st2" d="M288.6,145.8v126.4c15.5-5.2,26.6-19.7,26.6-36.9v-52.5C315.2,165.5,304.1,151,288.6,145.8z"/>
			<rect x="236.6" y="182.9" class="st2" width="26.8" height="91.3"/>
		</g>
		<path id="S_up" class="st0" d="M217.6,221.5l4.8,0.8v-27.2l-0.5-0.1c-6-1-10.3-6.1-10.3-12.2c0-6.8,5.5-12.3,12.3-12.3h0.4
			c6.8,0,12.3,5.5,12.3,12.3h26.8c0-21.6-17.5-39.1-39.1-39.1h-0.4c-21.6,0-39.1,17.5-39.1,39.1
			C184.8,202.2,198.6,218.4,217.6,221.5z"/>
		<path id="S_down" class="st0" d="M230.6,196.5l-2.6-0.4v27.3c5.1,1.6,8.7,6.3,8.7,11.7c0,6.8-5.5,12.3-12.3,12.3h-0.4
			c-6.8,0-12.3-5.5-12.3-12.3h-26.8c0,21.6,17.5,39.1,39.1,39.1h0.4c21.6,0,39.1-17.5,39.1-39.1
			C263.4,215.8,249.6,199.6,230.6,196.5z"/>
	</g>
</g>
<g id="txt">
	<g id="layer3">
		<rect id="ll" x="154.3" y="364.1" class="st3" width="191.6" height="12"/>
		<path class="st2" d="M159.1,373.2c0.5,0.3,1.3,0.6,2.1,0.6c1.2,0,1.9-0.6,1.9-1.5c0-0.8-0.5-1.3-1.7-1.8c-1.5-0.5-2.4-1.3-2.4-2.6
			c0-1.4,1.2-2.5,2.9-2.5c0.9,0,1.6,0.2,2,0.4l-0.3,1c-0.3-0.2-0.9-0.4-1.7-0.4c-1.2,0-1.7,0.7-1.7,1.4c0,0.8,0.6,1.3,1.8,1.8
			c1.5,0.6,2.3,1.3,2.3,2.7c0,1.4-1,2.6-3.2,2.6c-0.9,0-1.8-0.3-2.3-0.6L159.1,373.2z"/>
		<path class="st2" d="M169.7,373.2c0.5,0.3,1.3,0.6,2.1,0.6c1.2,0,1.9-0.6,1.9-1.5c0-0.8-0.5-1.3-1.7-1.8c-1.5-0.5-2.4-1.3-2.4-2.6
			c0-1.4,1.2-2.5,2.9-2.5c0.9,0,1.6,0.2,2,0.4l-0.3,1c-0.3-0.2-0.9-0.4-1.7-0.4c-1.2,0-1.7,0.7-1.7,1.4c0,0.8,0.6,1.3,1.8,1.8
			c1.5,0.6,2.3,1.3,2.3,2.7c0,1.4-1,2.6-3.2,2.6c-0.9,0-1.8-0.3-2.3-0.6L169.7,373.2z"/>
		<path class="st2" d="M181.7,365.6v3.8h4.4v-3.8h1.2v9.1h-1.2v-4.3h-4.4v4.3h-1.2v-9.1H181.7z"/>
		<path class="st2" d="M206.6,374.4c-0.4,0.2-1.3,0.4-2.4,0.4c-2.6,0-4.5-1.6-4.5-4.6c0-2.8,1.9-4.8,4.7-4.8c1.1,0,1.8,0.2,2.2,0.4
			l-0.3,1c-0.4-0.2-1.1-0.4-1.8-0.4c-2.1,0-3.5,1.4-3.5,3.7c0,2.2,1.3,3.6,3.5,3.6c0.7,0,1.4-0.1,1.9-0.4L206.6,374.4z"/>
		<path class="st2" d="M219.6,370c0,3.1-1.9,4.8-4.2,4.8c-2.4,0-4.1-1.9-4.1-4.6c0-2.9,1.8-4.8,4.2-4.8
			C218,365.4,219.6,367.3,219.6,370z M212.5,370.2c0,1.9,1,3.7,2.9,3.7c1.9,0,2.9-1.7,2.9-3.8c0-1.8-0.9-3.7-2.9-3.7
			C213.5,366.4,212.5,368.2,212.5,370.2z"/>
		<path class="st2" d="M225.1,374.7v-9.1h1.3l2.9,4.6c0.7,1.1,1.2,2,1.6,2.9l0,0c-0.1-1.2-0.1-2.3-0.1-3.7v-3.8h1.1v9.1h-1.2
			l-2.9-4.6c-0.6-1-1.2-2-1.7-3l0,0c0.1,1.1,0.1,2.2,0.1,3.7v3.9H225.1z"/>
		<path class="st2" d="M239.7,366.6H237v-1h6.7v1h-2.8v8.1h-1.2V366.6z"/>
		<path class="st2" d="M248.7,365.7c0.6-0.1,1.4-0.2,2.2-0.2c1.3,0,2.1,0.2,2.6,0.7c0.5,0.4,0.7,1,0.7,1.7c0,1.2-0.8,2-1.7,2.3v0
			c0.7,0.2,1.1,0.9,1.3,1.8c0.3,1.3,0.5,2.1,0.7,2.5h-1.2c-0.1-0.3-0.4-1-0.6-2.2c-0.3-1.3-0.8-1.7-1.8-1.8h-1.1v3.9h-1.2V365.7z
			 M249.9,369.8h1.2c1.3,0,2-0.7,2-1.7c0-1.2-0.8-1.7-2.1-1.7c-0.6,0-1,0.1-1.2,0.1V369.8z"/>
		<path class="st2" d="M267.8,370c0,3.1-1.9,4.8-4.2,4.8c-2.4,0-4.1-1.9-4.1-4.6c0-2.9,1.8-4.8,4.2-4.8
			C266.2,365.4,267.8,367.3,267.8,370z M260.7,370.2c0,1.9,1,3.7,2.9,3.7c1.9,0,2.9-1.7,2.9-3.8c0-1.8-0.9-3.7-2.9-3.7
			C261.7,366.4,260.7,368.2,260.7,370.2z"/>
		<path class="st2" d="M273.3,365.6h1.2v8.1h3.9v1h-5V365.6z"/>
		<path class="st2" d="M290.6,365.7c0.6-0.1,1.3-0.2,2.2-0.2c1.2,0,2,0.3,2.5,0.8c0.5,0.4,0.8,1.1,0.8,1.9c0,0.8-0.2,1.5-0.7,1.9
			c-0.6,0.7-1.6,1-2.8,1c-0.4,0-0.7,0-0.9-0.1v3.6h-1.2V365.7z M291.8,370.1c0.3,0.1,0.6,0.1,1,0.1c1.4,0,2.3-0.7,2.3-1.9
			c0-1.2-0.8-1.8-2.1-1.8c-0.5,0-0.9,0-1.1,0.1V370.1z"/>
		<path class="st2" d="M302.1,371.8l-0.9,2.9H300l3.1-9.1h1.4l3.1,9.1h-1.3l-1-2.9H302.1z M305.1,370.9l-0.9-2.6
			c-0.2-0.6-0.3-1.1-0.5-1.7h0c-0.1,0.5-0.3,1.1-0.5,1.6l-0.9,2.6H305.1z"/>
		<path class="st2" d="M312.9,374.7v-9.1h1.3l2.9,4.6c0.7,1.1,1.2,2,1.6,2.9l0,0c-0.1-1.2-0.1-2.3-0.1-3.7v-3.8h1.1v9.1h-1.2
			l-2.9-4.6c-0.6-1-1.2-2-1.7-3l0,0c0.1,1.1,0.1,2.2,0.1,3.7v3.9H312.9z"/>
		<path class="st2" d="M330.5,370.4H327v3.3h3.9v1h-5.1v-9.1h4.9v1H327v2.9h3.5V370.4z"/>
		<path class="st2" d="M336.5,365.6h1.2v8.1h3.9v1h-5V365.6z"/>
	</g>
	<g id="layer2">
		<g>
			<path class="st2" d="M103.2,338.5c2.1,1.3,5.1,2.4,8.3,2.4c4.8,0,7.5-2.5,7.5-6.2c0-3.4-1.9-5.3-6.8-7.2
				c-5.9-2.1-9.5-5.1-9.5-10.2c0-5.6,4.7-9.8,11.7-9.8c3.7,0,6.4,0.9,8,1.8l-1.3,3.8c-1.2-0.6-3.6-1.7-6.8-1.7
				c-4.9,0-6.8,2.9-6.8,5.4c0,3.4,2.2,5,7.2,7c6.1,2.4,9.2,5.3,9.2,10.6c0,5.6-4.1,10.4-12.6,10.4c-3.5,0-7.3-1-9.2-2.3L103.2,338.5
				z"/>
			<path class="st2" d="M130.1,306.2h4.7v16.2h0.1c0.7-1.3,1.9-2.5,3.4-3.3c1.4-0.8,3.1-1.3,4.8-1.3c3.5,0,9,2.1,9,11.1v15.4h-4.7
				v-14.9c0-4.2-1.6-7.7-6-7.7c-3.1,0-5.5,2.1-6.3,4.7c-0.3,0.6-0.3,1.3-0.3,2.2v15.6h-4.7V306.2z"/>
			<path class="st2" d="M174.1,344.2l-0.4-3.3h-0.2c-1.4,2-4.2,3.9-7.9,3.9c-5.2,0-7.9-3.7-7.9-7.4c0-6.3,5.6-9.7,15.6-9.6v-0.5
				c0-2.1-0.6-6-5.9-6c-2.4,0-4.9,0.7-6.7,1.9l-1.1-3.1c2.1-1.4,5.2-2.3,8.5-2.3c7.9,0,9.8,5.4,9.8,10.6v9.7c0,2.2,0.1,4.4,0.4,6.2
				H174.1z M173.4,331c-5.1-0.1-11,0.8-11,5.8c0,3.1,2,4.5,4.4,4.5c3.4,0,5.5-2.1,6.3-4.3c0.2-0.5,0.3-1,0.3-1.5V331z"/>
			<path class="st2" d="M185.6,306.2h4.7v16.2h0.1c0.7-1.3,1.9-2.5,3.4-3.3c1.4-0.8,3.1-1.3,4.8-1.3c3.5,0,9,2.1,9,11.1v15.4h-4.7
				v-14.9c0-4.2-1.6-7.7-6-7.7c-3.1,0-5.5,2.1-6.3,4.7c-0.3,0.6-0.3,1.3-0.3,2.2v15.6h-4.7V306.2z"/>
			<path class="st2" d="M229.6,344.2l-0.4-3.3h-0.2c-1.4,2-4.2,3.9-7.9,3.9c-5.2,0-7.9-3.7-7.9-7.4c0-6.3,5.6-9.7,15.6-9.6v-0.5
				c0-2.1-0.6-6-5.9-6c-2.4,0-4.9,0.7-6.7,1.9l-1.1-3.1c2.1-1.4,5.2-2.3,8.5-2.3c7.9,0,9.8,5.4,9.8,10.6v9.7c0,2.2,0.1,4.4,0.4,6.2
				H229.6z M228.9,331c-5.1-0.1-11,0.8-11,5.8c0,3.1,2,4.5,4.4,4.5c3.4,0,5.5-2.1,6.3-4.3c0.2-0.5,0.3-1,0.3-1.5V331z"/>
			<path class="st2" d="M241.1,325.3c0-2.7-0.1-4.9-0.2-7h4.2l0.3,4.3h0.1c1.3-2.5,4.3-4.9,8.6-4.9c3.6,0,9.2,2.1,9.2,11v15.5h-4.7
				v-14.9c0-4.2-1.6-7.7-6-7.7c-3.1,0-5.5,2.2-6.3,4.8c-0.2,0.6-0.3,1.4-0.3,2.2v15.6h-4.7V325.3z"/>
			<path class="st1" d="M282.3,308.5c2.2-0.4,5.2-0.7,8.9-0.7c4.6,0,8,1.1,10.1,3c2,1.7,3.2,4.3,3.2,7.5c0,3.3-1,5.8-2.8,7.7
				c-2.5,2.6-6.5,4-11,4c-1.4,0-2.7-0.1-3.7-0.3v14.4h-4.7V308.5z M286.9,325.9c1,0.3,2.3,0.4,3.9,0.4c5.6,0,9-2.7,9-7.7
				c0-4.8-3.4-7.1-8.5-7.1c-2,0-3.6,0.2-4.4,0.4V325.9z"/>
			<path class="st1" d="M323.5,344.2l-0.4-3.3H323c-1.4,2-4.2,3.9-7.9,3.9c-5.2,0-7.9-3.7-7.9-7.4c0-6.3,5.6-9.7,15.6-9.6v-0.5
				c0-2.1-0.6-6-5.9-6c-2.4,0-4.9,0.7-6.7,1.9L309,320c2.1-1.4,5.2-2.3,8.5-2.3c7.9,0,9.8,5.4,9.8,10.6v9.7c0,2.2,0.1,4.4,0.4,6.2
				H323.5z M322.8,331c-5.1-0.1-11,0.8-11,5.8c0,3.1,2,4.5,4.4,4.5c3.4,0,5.5-2.1,6.3-4.3c0.2-0.5,0.3-1,0.3-1.5V331z"/>
			<path class="st1" d="M335,325.3c0-2.7-0.1-4.9-0.2-7h4.2l0.3,4.3h0.1c1.3-2.5,4.3-4.9,8.6-4.9c3.6,0,9.2,2.1,9.2,11v15.5h-4.7
				v-14.9c0-4.2-1.6-7.7-6-7.7c-3.1,0-5.5,2.2-6.3,4.8c-0.2,0.6-0.3,1.4-0.3,2.2v15.6H335V325.3z"/>
			<path class="st1" d="M367.3,332.1c0.1,6.4,4.2,9,8.9,9c3.4,0,5.4-0.6,7.2-1.3l0.8,3.4c-1.7,0.7-4.5,1.6-8.6,1.6
				c-8,0-12.7-5.2-12.7-13.1s4.6-14,12.1-14c8.5,0,10.7,7.4,10.7,12.2c0,1-0.1,1.7-0.2,2.2H367.3z M381.1,328.7
				c0.1-3-1.2-7.7-6.5-7.7c-4.8,0-6.8,4.4-7.2,7.7H381.1z"/>
			<path class="st1" d="M391.5,306.2h4.7v38h-4.7V306.2z"/>
		</g>
	</g>
</g>
</svg>
