<?xml version="1.0" encoding="utf-8"?>
<!-- Generator: Adobe Illustrator 22.0.1, SVG Export Plug-In . SVG Version: 6.00 Build 0)  -->
<svg version="1.1" id="Layer_1" xmlns="http://www.w3.org/2000/svg" xmlns:xlink="http://www.w3.org/1999/xlink" x="0px" y="0px"
	 viewBox="0 0 167 167" style="enable-background:new 0 0 167 167;" xml:space="preserve">
<style type="text/css">
	.st0{fill:#00758C;}
	.st1{fill:#333F5B;}
	.st2{fill:#FFFFFF;}
</style>
<g id="SH">
	<path id="back" class="st0" d="M112.2,152.9H55.8c-23.1,0-41.7-18.7-41.7-41.7V54.8c0-23.1,18.7-41.7,41.7-41.7h56.3
		c23.1,0,41.7,18.7,41.7,41.7v56.3C153.9,134.2,135.2,152.9,112.2,152.9z"/>
	<path id="line" class="st1" d="M111.9,165.3H56.1c-30,0-54.4-24.4-54.4-54.4V55.1c0-30,24.4-54.4,54.4-54.4h55.7v3H56.1
		C27.8,3.7,4.7,26.8,4.7,55.1v55.7c0,28.4,23.1,51.4,51.4,51.4h55.7c28.4,0,51.4-23.1,51.4-51.4V55.1h3v55.7
		C166.3,140.9,141.9,165.3,111.9,165.3z"/>
	<g id="H">
		<path class="st1" d="M131,69.6H77.7c15,5.2,5,15,9.8,26.8H131V69.6z"/>
		<path class="st1" d="M122.6,19.8v126.4c15.5-5.2,26.6-19.7,26.6-36.9V56.7C149.2,39.5,138.1,25,122.6,19.8z"/>
		<rect x="70.6" y="56.9" class="st1" width="26.8" height="91.3"/>
	</g>
	<path id="S_up" class="st2" d="M51.6,95.5l4.8,0.8V69.1l-0.5-0.1c-6-1-10.3-6.1-10.3-12.2c0-6.8,5.5-12.3,12.3-12.3h0.4
		c6.8,0,12.3,5.5,12.3,12.3h26.8c0-21.6-17.5-39.1-39.1-39.1h-0.4c-21.6,0-39.1,17.5-39.1,39.1C18.8,76.2,32.6,92.4,51.6,95.5z"/>
	<path id="S_down" class="st2" d="M64.6,70.5L61.9,70v27.3c5.1,1.6,8.7,6.3,8.7,11.7c0,6.8-5.5,12.3-12.3,12.3h-0.4
		c-6.8,0-12.3-5.5-12.3-12.3H18.8c0,21.6,17.5,39.1,39.1,39.1h0.4c21.6,0,39.1-17.5,39.1-39.1C97.4,89.8,83.6,73.6,64.6,70.5z"/>
</g>
</svg>
